HIERARCHY
ROOT Hips
{
	OFFSET -3.958830 18.904000 13.208200
	CHANNELS 6 Xposition Yposition Zposition Zrotation Yrotation Xrotation 
	JOINT LHipJoint
	{
		OFFSET 0.000000 0.000000 0.000000
		CHANNELS 3 Zrotation Yrotation Xrotation
		JOINT LeftUpLeg
		{
			OFFSET 1.800000 -1.400000 0.085000
			CHANNELS 3 Zrotation Yrotation Xrotation
			JOINT LeftLeg
			{
				OFFSET 2.215000 -6.000000 0.000000
				CHANNELS 3 Zrotation Yrotation Xrotation
				JOINT LeftFoot
				{
					OFFSET 2.500000 -6.900000 0.000000
					CHANNELS 3 Zrotation Yrotation Xrotation
					JOINT LeftToeBase
					{
						OFFSET 0.200000 -0.500000 1.950000
						CHANNELS 3 Zrotation Yrotation Xrotation
						End Site
						{
							OFFSET 0.000000 0.000000 0.000000
						}
					}
				}
			}
		}
	}
	JOINT RHipJoint
	{
		OFFSET 0.000000 0.000000 0.000000
		CHANNELS 3 Zrotation Yrotation Xrotation
		JOINT RightUpLeg
		{
			OFFSET -1.800000 -1.400000 0.085000
			CHANNELS 3 Zrotation Yrotation Xrotation
			JOINT RightLeg
			{
				OFFSET -2.215000 -6.000000 0.000000
				CHANNELS 3 Zrotation Yrotation Xrotation
				JOINT RightFoot
				{
					OFFSET -2.500000 -6.900000 0.000000
					CHANNELS 3 Zrotation Yrotation Xrotation
					JOINT RightToeBase
					{
						OFFSET -0.200000 -0.500000 1.950000
						CHANNELS 3 Zrotation Yrotation Xrotation
						End Site
						{
							OFFSET 0.000000 0.000000 0.000000
						}
					}
				}
			}
		}
	}
	JOINT LowerBack
	{
		OFFSET 0.000000 0.000000 0.000000
		CHANNELS 3 Zrotation Yrotation Xrotation
		JOINT Spine
		{
			OFFSET -0.087000 1.940000 -0.288900
			CHANNELS 3 Zrotation Yrotation Xrotation
			JOINT Spine1
			{
				OFFSET 0.000000 1.950000 0.060000
				CHANNELS 3 Zrotation Yrotation Xrotation
				JOINT Neck
				{
					OFFSET 0.000000 0.000000 0.000000
					CHANNELS 3 Zrotation Yrotation Xrotation
					JOINT Neck1
					{
						OFFSET 0.000000 1.600000 0.340000
						CHANNELS 3 Zrotation Yrotation Xrotation
						JOINT Head
						{
							OFFSET 0.000000 1.667000 -0.240000
							CHANNELS 3 Zrotation Yrotation Xrotation
							End Site
							{
								OFFSET 0.000000 0.000000 0.000000
							}
						}
					}
				}
				JOINT LeftShoulder
				{
					OFFSET 0.000000 0.000000 0.000000
					CHANNELS 3 Zrotation Yrotation Xrotation
					JOINT LeftArm
					{
						OFFSET 2.700000 1.550000 -0.730000
						CHANNELS 3 Zrotation Yrotation Xrotation
						JOINT LeftForeArm
						{
							OFFSET 5.450000 0.000000 0.000000
							CHANNELS 3 Zrotation Yrotation Xrotation
							JOINT LeftHand
							{
								OFFSET 3.450000 0.000000 0.000000
								CHANNELS 3 Zrotation Yrotation Xrotation
								JOINT LeftHandIndex1
								{
									OFFSET 0.750000 0.000000 0.000000
									CHANNELS 3 Zrotation Yrotation Xrotation
									End Site
									{
										OFFSET 0.000000 0.000000 0.000000
									}
								}
							}
						}
					}
				}
				JOINT RightShoulder
				{
					OFFSET 0.000000 0.000000 0.000000
					CHANNELS 3 Zrotation Yrotation Xrotation
					JOINT RightArm
					{
						OFFSET -2.700000 1.550000 -0.730000
						CHANNELS 3 Zrotation Yrotation Xrotation
						JOINT RightForeArm
						{
							OFFSET -5.450000 0.000000 0.000000
							CHANNELS 3 Zrotation Yrotation Xrotation
							JOINT RightHand
							{
								OFFSET -3.450000 0.000000 0.000000
								CHANNELS 3 Zrotation Yrotation Xrotation
								JOINT RightHandIndex1
								{
									OFFSET -0.750000 0.000000 0.000000
									CHANNELS 3 Zrotation Yrotation Xrotation
									End Site
									{
										OFFSET 0.000000 0.000000 0.000000
									}
								}
							}
						}
					}
				}
			}
		}
	}
}
MOTION
Frames: 8
Frame Time: 0.016667
-0.768480 16.307970 -2.382100 -6.519191 10.323081 -16.535364 -15.093313 12.134508 3.685304 19.527756 5.967684 -40.340078 15.076593 9.227095 61.701557 0.194367 11.319151 0.513981 -0.022960 -0.109350 -0.512450 18.462776 -11.234545 1.991564 -25.443074 11.182352 -2.068930 11.417319 -14.563575 48.606384 -1.201232 -9.134512 1.220182 0.149530 0.824290 -0.030650 -4.142966 0.686834 -8.351761 1.189096 1.983502 32.978111 -24.322581 12.495877 21.995904 9.736284 -10.900940 -16.475162 -22.434079 0.655596 36.085853 18.982320 -11.222370 -25.561790 -3.109238 -22.545780 7.979515 -42.857552 -28.433247 1.991075 165.316350 -45.586327 -179.401822 -3.853498 2.738473 0.824580 0.043440 -0.171020 0.195610 -15.407365 37.107488 2.747421 -11.794551 17.410000 -3.583328 -5.877009 8.658133 0.312150 1.940116 -0.675072 -0.615910 0.960120 0.585450 0.043350 
-0.758960 16.294480 -2.382430 -6.798921 10.083094 -16.691483 -15.061263 12.085921 3.703098 19.863930 5.978302 -40.263996 15.219773 9.200202 62.077487 0.288689 11.302926 0.511823 0.027120 -0.041820 -0.485640 18.500066 -11.229726 2.023302 -25.395289 11.231194 -2.580951 11.594809 -14.799661 49.042354 -1.258890 -9.191266 1.194703 0.142490 0.758270 0.001350 -4.243743 0.756161 -8.408388 2.444544 1.667848 32.608615 -24.322726 12.174580 21.716143 9.483475 -10.645531 -16.831508 -22.787546 1.517598 37.588447 19.320690 -10.667870 -25.362650 -2.696766 -23.307420 8.742718 -42.974702 -28.694011 2.074763 162.787051 -45.189956 -173.830642 -3.815766 2.780356 0.810550 0.011720 -0.117930 0.215610 -15.353273 37.221311 2.826199 -11.139982 17.943871 -4.002206 -6.775401 10.194518 0.228472 1.974313 -0.793590 -0.538210 0.883220 0.528630 0.058090 
-0.742750 16.285570 -2.396870 -6.910379 9.633898 -17.262496 -15.063405 12.168514 3.680918 20.070416 5.480060 -39.433383 15.184215 9.008021 62.372616 0.287605 11.334185 0.492726 0.029810 -0.029250 -0.492740 18.489519 -11.222397 2.020467 -25.509848 10.885579 -3.222859 11.135969 -14.919107 49.668080 -1.265780 -9.254535 1.169177 0.151980 0.766990 0.030480 -4.228991 0.554218 -8.396031 3.607255 1.420671 31.913338 -23.180101 11.818968 22.213695 8.808349 -9.992710 -16.708129 -22.011300 1.914344 38.414831 18.719380 -10.067340 -24.594120 -1.618648 -24.829989 9.043237 -40.470852 -31.260413 2.455512 156.565494 -44.219153 -159.428697 -3.866647 2.716616 0.794360 0.041380 -0.118330 0.212670 -15.268200 37.482345 3.244568 -9.912437 18.665851 -5.555240 -10.575315 12.716361 -0.470411 1.989075 -0.959373 -0.525010 0.865820 0.539190 0.058920 
-0.726800 16.279370 -2.411600 -6.556635 8.960981 -18.065460 -15.141549 12.372841 3.605974 20.208234 4.745335 -37.901641 14.701526 8.983353 62.530308 0.233032 11.381134 0.477072 0.018380 -0.030490 -0.491530 18.401223 -11.108708 2.042517 -26.487317 10.373874 -4.040322 11.333775 -15.541904 50.222278 -1.268714 -9.408807 1.113899 0.180790 0.800360 0.033450 -3.990116 0.006254 -8.320509 3.582222 1.517562 31.014459 -20.309821 11.306715 23.028559 7.955468 -9.350848 -15.722518 -20.789426 2.053575 38.682600 16.672070 -9.350930 -24.050170 -0.572411 -25.923199 9.368013 -38.227115 -33.479750 2.950684 149.876589 -42.496072 -143.395829 -3.970133 2.560548 0.777330 0.092620 -0.145970 0.195610 -14.830502 37.455152 3.096840 -8.695041 20.532818 -7.646282 -15.600802 15.730245 -1.798503 1.964813 -1.080876 -0.554260 0.900100 0.569790 0.043030 
-0.706040 16.273840 -2.416960 -6.516589 6.696988 -18.958389 -15.162420 12.418363 3.615492 22.243638 4.552753 -35.577252 12.669817 10.308768 63.032758 0.255082 11.539014 0.410839 0.135310 0.123570 -0.371970 18.392360 -11.078899 2.019171 -26.587104 9.557036 -5.694043 10.293213 -15.571782 51.492541 -1.337207 -9.463586 1.085853 0.261080 0.729830 0.062660 -3.924095 -0.149580 -8.307391 4.598906 1.168397 29.870035 -18.178293 10.213994 23.615615 7.288428 -8.011883 -14.502412 -18.094317 2.829118 39.966567 13.535030 -6.964770 -25.240010 0.309671 -27.896588 9.675379 -33.872620 -34.606046 1.057193 142.070118 -40.322095 -124.894214 -3.997265 2.401771 0.776770 0.094340 -0.077410 0.211720 -14.529942 37.564642 2.637159 -4.179726 24.375400 -10.697786 -24.717060 21.680844 -5.313994 1.899703 -1.252683 -0.509800 0.894390 0.493760 0.018660 
-0.680200 16.254490 -2.394120 -5.441912 3.673844 -18.941656 -15.171786 12.399004 3.697933 24.076399 4.183312 -33.303323 9.422965 12.742484 63.555260 0.428855 11.733554 0.354762 0.226770 0.260170 -0.238800 18.401288 -11.042696 1.996541 -27.583656 8.426230 -8.772238 8.624499 -15.420091 53.057346 -1.389972 -9.434803 1.080974 0.278370 0.576620 0.048080 -3.887195 -0.269785 -8.353027 5.216488 1.438494 27.856791 -15.560807 9.200899 23.194400 5.872719 -6.256136 -14.227491 -15.660629 3.735641 44.233658 11.068860 -4.640980 -25.693680 2.930143 -28.883802 9.990767 -30.142725 -34.327208 -1.283956 132.858582 -38.910380 -105.320635 -3.898711 2.270462 0.763690 0.033700 0.023990 0.221970 -14.435450 36.728402 4.130752 3.935879 28.938314 -13.556959 -39.285131 32.845627 -13.731713 1.758852 -1.252224 -0.427330 0.822380 0.358510 -0.001230 
-0.652340 16.239050 -2.378610 -5.245931 1.588279 -19.256938 -15.088662 12.176267 3.885408 26.263541 2.902196 -31.181218 5.407454 15.154862 63.574893 0.552950 12.036524 0.255127 0.257810 0.312400 -0.172550 18.511086 -11.086454 1.945018 -27.540731 6.600893 -11.487934 6.578260 -15.419722 54.864154 -1.446876 -9.511997 1.048844 0.264330 0.496940 0.091380 -4.133282 -0.074899 -8.427491 8.180626 0.615517 26.578502 -13.756309 7.004687 23.052776 4.521844 -5.271081 -14.058662 -14.053324 4.335624 47.149469 7.954120 -2.987980 -25.781220 5.126295 -30.420344 9.577793 -24.741727 -33.076070 -5.244522 119.753008 -39.639494 -84.473096 -3.875644 2.131743 0.747900 0.030380 0.090390 0.210200 -13.842784 36.419804 6.145845 12.558396 32.967540 -14.428768 -56.346241 44.624968 -27.759922 1.576610 -0.923234 -0.357530 0.755880 0.311500 -0.009400 
-0.623210 16.210620 -2.361960 -4.658699 -0.731533 -19.874458 -15.028139 11.911870 4.156604 28.886470 0.682980 -28.231719 -0.230374 18.326728 63.160460 0.699578 12.558520 0.124693 0.294640 0.362930 -0.065410 18.611540 -11.152987 1.758880 -27.318362 3.877582 -14.276339 2.735808 -14.731604 57.421339 -1.493032 -9.571843 1.032959 0.282240 0.445530 0.092000 -4.330965 0.055991 -8.435054 10.311896 -0.299727 25.667187 -11.547115 4.330506 23.458907 2.777028 -4.498318 -13.526405 -12.008711 4.812428 47.626118 4.280530 -0.771530 -25.974000 8.330452 -30.979186 8.195950 -19.111029 -30.951221 -9.102721 101.818375 -40.504227 -62.378143 -3.829086 2.065552 0.729330 0.041570 0.133030 0.202580 -13.498485 35.309222 8.428064 22.547780 37.459713 -12.111006 -82.436044 54.638177 -54.857606 1.587743 -0.240996 -0.341660 0.754130 0.250820 -0.034420 
